<svg xmlns="http://www.w3.org/2000/svg" id="DPD_Black" data-name="DPD Black" viewBox="0 0 1942.48 850.39"><defs><style>      .cls-1 {        fill: #414042;      }      .cls-1, .cls-2 {        stroke-width: 0px;      }      .cls-2 {        fill: #dc0032;      }    </style></defs><path class="cls-1" d="m1260.93,625.51c-36.67,9.71-84.44,14.51-125.97,14.51-106.6,0-177.19-56.73-177.19-160.56,0-98.27,65.75-161.92,161.97-161.92,21.45,0,44.27,2.73,58.13,9.68v-142.64h83.06v440.94Zm-83.06-224.94c-13.15-6.23-30.45-9.69-51.25-9.69-50.49,0-84.42,31.16-84.42,85.83,0,58.84,36.67,92.08,95.51,92.08,10.39,0,26.3-.72,40.15-3.46v-164.75Zm764.6,224.94c-36.71,9.71-84.46,14.51-125.99,14.51-106.58,0-177.21-56.73-177.21-160.56,0-98.27,65.78-161.92,162-161.92,21.45,0,44.29,2.73,58.14,9.68v-142.64h83.06v440.94Zm-83.06-224.94c-13.17-6.23-30.48-9.69-51.23-9.69-50.52,0-84.43,31.16-84.43,85.83,0,58.84,36.68,92.08,95.51,92.08,10.37,0,26.3-.72,40.15-3.46v-164.75Zm-467.87-.68c13.83-5.55,33.18-7.61,49.8-7.61,51.23,0,86.53,29.76,86.53,83.03,0,62.85-39.1,91.27-91.38,92v72.66c1.38,0,2.77.05,4.18.05,107.27,0,171.65-60.19,171.65-167.47,0-97.59-68.51-155.02-169.57-155.02-51.2,0-101.76,11.77-134.97,25.6v414.61h83.77v-357.85Z"></path><path class="cls-2" d="m507,379.53c-3.44,2-8.82,1.85-12.18-.23l-19.75-11.74c-1.61-.99-3.08-2.59-4.2-4.51-.06-.11-.13-.22-.2-.33-1.26-2.06-1.98-4.23-2.05-6.22l-.5-23.02c-.15-3.88,2.41-8.61,5.86-10.62l237.37-138.29L378.26,3.03C374.59.99,369.75,0,364.91,0c-4.85,0-9.69,1-13.37,3.03L18.45,184.57l373.16,217.23c3.45,1.89,6.09,6.38,6.09,10.43v316.9c0,3.98-2.85,8.55-6.33,10.41l-20.08,11.15c-1.67.89-3.79,1.36-6.01,1.36h-.38c-2.41.05-4.65-.42-6.41-1.36l-20.15-11.15c-3.43-1.82-6.22-6.41-6.22-10.41v-282.5c-.18-2.07-1.69-4.59-3.35-5.54L0,249.72v374.85c0,8.39,5.91,18.73,13.16,22.97l338.59,199.69c3.62,2.12,8.39,3.17,13.15,3.16,4.77-.01,9.53-1.01,13.15-3.16l338.64-199.69c7.22-4.29,13.12-14.58,13.11-22.97V249.72l-222.81,129.81Z"></path></svg>